<?xml version="1.0" encoding="UTF-8"?>
<svg id="katman_2" data-name="katman 2" xmlns="http://www.w3.org/2000/svg" viewBox="0 0 198.8 198.8">
  <defs>
    <style>
      .cls-1 {
        fill: #111827;
      }

      .cls-2 {
        fill: #dc2727;
      }

      .cls-3 {
        fill: none;
        stroke: #fff;
        stroke-miterlimit: 10;
        stroke-width: 6px;
      }
    </style>
  </defs>
  <g id="katman_1" data-name="katman 1">
    <g>
      <rect class="cls-1" width="198.8" height="198.8"/>
      <g>
        <polygon class="cls-3" points="122.86 72.99 122.86 83.66 118.24 88.28 118.24 155.84 106.15 167.93 92.65 167.93 80.56 155.84 80.56 88.28 75.94 83.66 75.94 72.99 122.86 72.99"/>
        <g>
          <path class="cls-2" d="M87.42,93.97h7.13s6.4,4.94,8.29,5.24c1.89.29,9.02,0,9.02,0v53.23l-8.22,8.22h-8.65l-8.04-8.04.47-58.65Z"/>
          <circle class="cls-1" cx="100.82" cy="111.37" r="2.42"/>
          <circle class="cls-1" cx="96.97" cy="122.98" r="3.42"/>
          <circle class="cls-1" cx="104.25" cy="150.94" r="2.93"/>
        </g>
        <circle class="cls-2" cx="107.85" cy="56.99" r="6.62"/>
        <circle class="cls-2" cx="92.65" cy="44.46" r="4.62"/>
        <circle class="cls-2" cx="106.53" cy="35.13" r="4.26"/>
      </g>
    </g>
  </g>
</svg>